#!OML:ASF H:\MichaelJackson\Top Level 1\Subject 1\Session 1\male.ASF
:FULLY-SPECIFIED
:DEGREES
138
root 6.25312 16.9249 -28.1006 -0.952105 26.7319 -4.89364
lowerback 3.93252 -2.61372 -2.062
upperback -0.248033 -3.5086 3.03734
thorax -2.14356 -1.71277 4.48469
lowerneck -9.21479 -5.30949 -2.62961
upperneck 3.39168 -6.92971 2.67166
head 2.90456 -3.38367 0.945113
rclavicle -3.6039e-014 3.57812e-014
rhumerus -48.3039 0.65244 -65.5006
rradius 50.995
rwrist 16.1573
rhand -24.1945 -16.2832
rfingers 7.12502
rthumb 2.28953 -46.2507
lclavicle -3.6039e-014 3.57812e-014
lhumerus -41.3004 -20.6427 100.132
lradius 50.8412
lwrist 13.5306
lhand 22.7354 14.9976
lfingers 7.12502
lthumb 47.0742 37.631
rfemur -48.6852 0.475032 2.6009
rtibia 114.831
rfoot 27.6545 6.15137
rtoes 33.7484
lfemur -19.9157 3.59458 -15.0541
ltibia 34.9709
lfoot -15.5214 -8.31495
ltoes 22.5548
139
root 6.24471 16.9462 -28.0961 -1.92233 27.477 -5.13267
lowerback 4.75717 -2.8471 -1.98333
upperback 0.0821451 -3.82655 2.93033
thorax -2.24819 -1.87497 4.38228
lowerneck -9.20278 -5.38189 -2.55933
upperneck 3.48921 -7.04935 2.86116
head 2.94496 -3.43475 0.986478
rclavicle 1.86252e-014 7.45443e-016
rhumerus -48.6776 0.579361 -64.6254
rradius 50.8944
rwrist 19.7083
rhand -23.6545 -16.1261
rfingers 7.12502
rthumb 2.81104 -46.0873
lclavicle 1.86252e-014 7.45443e-016
lhumerus -40.9175 -21.6919 99.8861
lradius 50.9789
lwrist 13.6841
lhand 23.9968 15.5027
lfingers 7.12502
lthumb 48.2385 37.6034
rfemur -50.7291 0.45156 1.81635
rtibia 118.025
rfoot 27.1756 0.851701
rtoes 37.7601
lfemur -18.9793 3.6394 -14.8324
ltibia 34.6994
lfoot -15.3675 -9.0811
ltoes 22.6123
140
root 6.23303 16.9473 -28.092 -2.90582 28.1826 -5.34707
lowerback 5.6034 -3.09173 -1.95874
upperback 0.43208 -4.16118 2.82978
thorax -2.3396 -2.04485 4.32462
lowerneck -9.18303 -5.43762 -2.49605
upperneck 3.55069 -7.14489 3.04112
head 2.97093 -3.47443 1.02805
rclavicle 9.06703e-015 5.83309e-015
rhumerus -49.0037 0.476191 -63.7151
rradius 50.9532
rwrist 22.6704
rhand -22.5378 -15.7021
rfingers 7.12502
rthumb 3.88942 -45.6464
lclavicle 9.06703e-015 5.83309e-015
lhumerus -40.512 -22.575 99.6149
lradius 51.0792
lwrist 13.642
lhand 25.0822 15.9917
lfingers 7.12502
lthumb 49.2366 37.6062
rfemur -52.8182 0.243571 1.12827
rtibia 120.546
rfoot 25.9812 -5.16197
rtoes 42.4873
lfemur -18.082 3.69363 -14.6236
ltibia 34.5091
lfoot -15.2373 -9.81552
ltoes 22.6726
141
root 6.22073 16.9473 -28.0887 -3.90111 28.8795 -5.54381
lowerback 6.46891 -3.35271 -1.98724
upperback 0.798305 -4.52004 2.74
thorax -2.41773 -2.22625 4.31649
lowerneck -9.15895 -5.48503 -2.4388
upperneck 3.58968 -7.2274 3.20788
head 2.98777 -3.50833 1.06756
rclavicle -3.69305e-014 3.77691e-015
rhumerus -49.2777 0.343201 -62.7798
rradius 51.1798
rwrist 24.8891
rhand -20.9011 -15.1171
rfingers 7.12502
rthumb 5.46983 -45.0265
lclavicle -3.69305e-014 3.77691e-015
lhumerus -40.0943 -23.3037 99.3378
lradius 51.1398
lwrist 13.4247
lhand 25.9999 16.4146
lfingers 7.12502
lthumb 50.0776 37.5965
rfemur -54.8015 -0.101089 0.617211
rtibia 122.162
rfoot 23.9201 -11.2878
rtoes 47.1204
lfemur -17.179 3.73225 -14.4348
ltibia 34.3419
lfoot -15.1142 -10.5264
ltoes 22.7726
142
root 6.20887 16.947 -28.0868 -4.89665 29.5767 -5.72846
lowerback 7.34683 -3.63037 -2.04283
upperback 1.17455 -4.90255 2.65575
thorax -2.4863 -2.41906 4.33812
lowerneck -9.1268 -5.52339 -2.38204
upperneck 3.59889 -7.29636 3.36272
head 2.99201 -3.53622 1.10468
rclavicle 1.36789e-014 -5.36719e-015
rhumerus -49.5064 0.168442 -61.8296
rradius 51.576
rwrist 26.2868
rhand -18.8091 -14.4809
rfingers 7.12502
rthumb 7.48939 -44.3284
lclavicle 1.36789e-014 -5.36719e-015
lhumerus -39.6688 -23.8974 99.0631
lradius 51.1591
lwrist 13.0913
lhand 26.7003 16.8138
lfingers 7.12502
lthumb 50.7175 37.6515
rfemur -56.6334 -0.504473 0.290758
rtibia 122.782
rfoot 20.9691 -16.6795
rtoes 51.1483
lfemur -16.3179 3.75217 -14.2677
ltibia 34.2629
lfoot -15.0255 -11.2201
ltoes 22.9523
143
root 6.19709 16.9477 -28.0865 -5.89265 30.2782 -5.92258
lowerback 8.23514 -3.9237 -2.10409
upperback 1.55373 -5.30586 2.57682
thorax -2.55263 -2.62182 4.3778
lowerneck -9.08789 -5.55392 -2.32258
upperneck 3.58845 -7.35426 3.51135
head 2.98754 -3.55906 1.14041
rclavicle -7.10655e-015 -1.98785e-015
rhumerus -49.6914 -0.0977078 -60.8587
rradius 52.1181
rwrist 26.9153
rhand -16.2987 -13.9928
rfingers 7.12502
rthumb 9.91195 -43.7395
lclavicle -7.10655e-015 -1.98785e-015
lhumerus -39.2424 -24.3842 98.796
lradius 51.1369
lwrist 12.7187
lhand 27.2636 17.1531
lfingers 7.12502
lthumb 51.2308 37.7047
rfemur -58.2674 -0.88771 0.157856
rtibia 122.326
rfoot 17.6682 -20.4739
rtoes 53.9645
lfemur -15.4699 3.76147 -14.1001
ltibia 34.1764
lfoot -14.8999 -11.9179
ltoes 23.2501
144
root 6.18593 16.9494 -28.0879 -6.87806 30.9582 -6.12722
lowerback 9.11915 -4.22119 -2.15254
upperback 1.93328 -5.71301 2.49498
thorax -2.61481 -2.82617 4.41443
lowerneck -9.03598 -5.57661 -2.25426
upperneck 3.55377 -7.40206 3.66058
head 2.97167 -3.57715 1.17602
rclavicle -1.19644e-014 -1.63003e-014
rhumerus -49.8286 -0.51085 -59.852
rradius 52.783
rwrist 26.8207
rhand -13.5753 -13.6827
rfingers 7.12502
rthumb 12.5386 -43.2864
lclavicle -1.19644e-014 -1.63003e-014
lhumerus -38.8151 -24.8045 98.5402
lradius 51.0777
lwrist 12.387
lhand 27.6814 17.4911
lfingers 7.12502
lthumb 51.6108 37.8251
rfemur -59.6612 -1.19597 0.183082
rtibia 120.76
rfoot 14.9893 -22.1558
rtoes 55.2309
lfemur -14.6418 3.78139 -13.9299
ltibia 34.0792
lfoot -14.7225 -12.6139
ltoes 23.6958
